# File created by Blade
# Date/Time:  Mon Sep 22 17:38:34 2014
# Frame Rate: 120.000 fps
#------------------------------------------------------
:FULLY-SPECIFIED
:DEGREES
3369
root 2.067887 37.881569 5.490173 3.814416 18.914412 18.467133
RightUpLeg 8.626776 -10.308407 -11.569749
RightLeg -2.988029 -0.000000 0.000000
RightFoot -16.077837 -26.198750 12.608056
RightToeBase 9.034535 -0.000000 -0.000000
LeftUpLeg -8.122464 30.640731 8.856852
LeftLeg 70.260161 -0.000000 -0.000000
LeftFoot 19.870981 26.642907 -37.742721
LeftToeBase -6.356849 -0.000000 0.000000
Spine 14.155321 3.960604 5.096611
RightShoulder 1.987469 -15.426959 -18.478374
RightArm 33.042278 9.434660 51.722028
RightForeArm 2.819378 -0.000000 107.186517
RightHand 2.189035 -0.000000 -34.247566
RightHandThumb1 -24.326973 -0.000000 -32.862282
LeftShoulder -27.591680 37.021938 -13.746260
LeftArm 27.015491 -7.267792 -73.487293
LeftForeArm 29.861187 -0.000000 46.699616
LeftHand -26.474451 0.000000 11.360126
LeftHandThumb1 -26.253704 0.000000 33.147579
Head 15.097502 -6.114578 -18.308621
3370
root 2.074327 37.889023 5.475193 3.916114 19.060064 18.554028
RightUpLeg 8.495171 -10.356021 -11.635179
RightLeg -2.816259 -0.000000 0.000000
RightFoot -16.083066 -26.308544 12.545945
RightToeBase 8.915966 -0.000000 -0.000000
LeftUpLeg -8.050849 30.662524 8.878235
LeftLeg 70.269081 -0.000000 -0.000000
LeftFoot 19.802947 26.651016 -37.770121
LeftToeBase -6.234469 -0.000000 0.000000
Spine 14.136374 3.923304 5.068337
RightShoulder 1.988584 -15.404899 -18.511375
RightArm 32.930957 9.516541 51.710550
RightForeArm 2.808843 0.000000 107.241052
RightHand 2.148821 -0.000000 -34.185739
RightHandThumb1 -24.326973 -0.000000 -32.862282
LeftShoulder -27.517314 37.004400 -13.705839
LeftArm 26.998030 -7.211196 -73.479513
LeftForeArm 29.882422 0.000000 46.863644
LeftHand -26.601059 -0.000000 11.254129
LeftHandThumb1 -26.253704 0.000000 33.147579
Head 15.042280 -6.178454 -18.311031
3371
root 2.088474 37.900525 5.460244 4.021584 19.192195 18.677486
RightUpLeg 8.346040 -10.503660 -11.770833
RightLeg -2.583980 -0.000000 0.000000
RightFoot -16.168770 -26.269463 12.592264
RightToeBase 8.876387 -0.000000 -0.000000
LeftUpLeg -7.953605 30.720632 8.857074
LeftLeg 70.259604 -0.000000 -0.000000
LeftFoot 19.823152 26.694859 -37.703512
LeftToeBase -6.250330 -0.000000 0.000000
Spine 14.122560 3.895015 5.022478
RightShoulder 1.992460 -15.407129 -18.554495
RightArm 32.850118 9.611630 51.699172
RightForeArm 2.775953 0.000000 107.281728
RightHand 2.092632 0.000000 -34.249900
RightHandThumb1 -24.326973 -0.000000 -32.862282
LeftShoulder -27.475491 37.022747 -13.717252
LeftArm 27.031967 -7.128936 -73.446274
LeftForeArm 29.825384 -0.000000 47.058819
LeftHand -26.716430 -0.000000 11.117329
LeftHandThumb1 -26.253704 0.000000 33.147579
Head 15.008794 -6.234494 -18.340471
3372
root 2.098212 37.910497 5.441560 4.158115 19.311717 18.778779
RightUpLeg 8.121899 -10.574416 -11.861884
RightLeg -2.297994 -0.000000 0.000000
RightFoot -16.315656 -26.311915 12.687116
RightToeBase 8.713795 -0.000000 -0.000000
LeftUpLeg -7.916029 30.805331 8.855980
LeftLeg 70.321671 -0.000000 -0.000000
LeftFoot 19.810809 26.641696 -37.708736
LeftToeBase -6.280254 -0.000000 0.000000
Spine 14.077432 3.866519 4.990662
RightShoulder 2.017865 -15.325812 -18.616711
RightArm 32.695697 9.651513 51.696404
RightForeArm 2.774795 -0.000000 107.333080
RightHand 2.088869 -0.000000 -34.444913
RightHandThumb1 -24.326973 -0.000000 -32.862282
LeftShoulder -27.415715 36.952885 -13.741890
LeftArm 26.871766 -6.996140 -73.270579
LeftForeArm 29.837833 0.000000 47.405354
LeftHand -26.309152 -0.000000 11.276067
LeftHandThumb1 -26.253704 0.000000 33.147579
Head 14.956524 -6.269945 -18.374305
3373
root 2.105489 37.921240 5.422073 4.289625 19.401806 18.866522
RightUpLeg 7.865117 -10.592498 -11.935436
RightLeg -1.965750 -0.000000 0.000000
RightFoot -16.502604 -26.338632 12.846326
RightToeBase 8.677070 -0.000000 -0.000000
LeftUpLeg -7.872260 30.929098 8.877108
LeftLeg 70.415351 -0.000000 -0.000000
LeftFoot 19.966436 26.488908 -37.504582
LeftToeBase -6.172523 -0.000000 0.000000
Spine 14.027628 3.849870 4.957413
RightShoulder 2.090950 -15.382635 -18.680776
RightArm 32.651122 9.825415 51.759027
RightForeArm 2.778615 -0.000000 107.368802
RightHand 2.122886 -0.000000 -34.593117
RightHandThumb1 -24.326973 -0.000000 -32.862282
LeftShoulder -27.404397 36.968291 -13.735887
LeftArm 26.925597 -6.926124 -73.278502
LeftForeArm 29.983824 -0.000000 47.549299
LeftHand -26.036551 -0.000000 11.363427
LeftHandThumb1 -26.253704 0.000000 33.147579
Head 14.936557 -6.311328 -18.406754
3374
root 2.109186 37.932008 5.399749 4.446603 19.477696 18.940347
RightUpLeg 7.520969 -10.679086 -11.988165
RightLeg -1.539279 -0.000000 0.000000
RightFoot -16.697590 -26.312798 12.949099
RightToeBase 8.609267 -0.000000 -0.000000
LeftUpLeg -7.878052 31.112001 8.907638
LeftLeg 70.561184 -0.000000 -0.000000
LeftFoot 19.972703 26.379043 -37.565506
LeftToeBase -6.219547 -0.000000 0.000000
Spine 13.957884 3.874308 4.933391
RightShoulder 2.157647 -15.336877 -18.743522
RightArm 32.465924 9.927779 51.769511
RightForeArm 2.764235 -0.000000 107.424489
RightHand 2.130137 -0.000000 -34.719110
RightHandThumb1 -24.326973 -0.000000 -32.862282
LeftShoulder -27.357772 36.949025 -13.705429
LeftArm 26.938850 -6.841373 -73.261366
LeftForeArm 30.031924 -0.000000 47.820463
LeftHand -26.321639 0.000000 11.075909
LeftHandThumb1 -26.253704 0.000000 33.147579
Head 14.911619 -6.366108 -18.424264
3375
root 2.113874 37.944966 5.374021 4.618038 19.518312 19.023042
RightUpLeg 7.120608 -10.742517 -12.054315
RightLeg -1.056243 -0.000000 0.000000
RightFoot -16.895350 -26.282911 13.054282
RightToeBase 8.584358 -0.000000 -0.000000
LeftUpLeg -7.886202 31.355761 8.934800
LeftLeg 70.742888 -0.000000 -0.000000
LeftFoot 20.059154 26.192598 -37.473281
LeftToeBase -6.194457 -0.000000 0.000000
Spine 13.883332 3.933210 4.908554
RightShoulder 2.208498 -15.349020 -18.800855
RightArm 32.357912 10.076955 51.786097
RightForeArm 2.750129 0.000000 107.457020
RightHand 2.124514 -0.000000 -34.816649
RightHandThumb1 -24.326973 -0.000000 -32.862282
LeftShoulder -27.312266 36.920555 -13.692686
LeftArm 26.983080 -6.777156 -73.243720
LeftForeArm 29.901622 0.000000 48.099382
LeftHand -26.440188 -0.000000 10.921766
LeftHandThumb1 -26.253704 0.000000 33.147579
Head 14.895431 -6.433188 -18.457158
3376
root 2.104084 37.955720 5.336491 4.810219 19.637553 19.106632
RightUpLeg 6.651644 -10.844709 -12.082828
RightLeg -0.493453 -0.000000 0.000000
RightFoot -17.112828 -26.316290 13.117677
RightToeBase 8.573424 -0.000000 -0.000000
LeftUpLeg -8.009558 31.548167 8.945104
LeftLeg 71.007902 -0.000000 -0.000000
LeftFoot 20.110106 26.161344 -37.419582
LeftToeBase -5.928864 -0.000000 0.000000
Spine 13.843869 3.911373 4.856505
RightShoulder 2.254302 -15.203171 -18.831033
RightArm 32.174394 10.172523 51.792622
RightForeArm 2.753140 -0.000000 107.497305
RightHand 2.040422 -0.000000 -34.915131
RightHandThumb1 -24.326973 -0.000000 -32.862282
LeftShoulder -27.263680 36.851018 -13.643172
LeftArm 27.013357 -6.695378 -73.211167
LeftForeArm 30.073636 -0.000000 48.363149
LeftHand -26.150034 -0.000000 10.798319
LeftHandThumb1 -26.253704 0.000000 33.147579
Head 14.785923 -6.521631 -18.460286
3377
root 2.109076 37.971836 5.308655 4.989571 19.671130 19.235237
RightUpLeg 6.201952 -10.935063 -12.198411
RightLeg 0.084118 -0.000000 -0.000000
RightFoot -17.322004 -26.251671 13.214825
RightToeBase 8.634026 -0.000000 -0.000000
LeftUpLeg -8.000841 31.853705 8.953431
LeftLeg 71.221429 -0.000000 -0.000000
LeftFoot 20.125733 26.188242 -37.482340
LeftToeBase -5.540744 -0.000000 0.000000
Spine 13.788106 3.949000 4.764187
RightShoulder 2.354569 -15.178553 -18.874975
RightArm 32.009355 10.337044 51.806496
RightForeArm 2.843619 -0.000000 107.549974
RightHand 2.060636 -0.000000 -35.059059
RightHandThumb1 -24.326973 -0.000000 -32.862282
LeftShoulder -27.265010 36.843427 -13.641504
LeftArm 27.099963 -6.608366 -73.209514
LeftForeArm 30.007767 -0.000000 48.698279
LeftHand -26.655738 -0.000000 10.893944
LeftHandThumb1 -26.253704 0.000000 33.147579
Head 14.762169 -6.549437 -18.452707
3378
root 2.117198 37.987811 5.285883 5.138209 19.678078 19.372800
RightUpLeg 5.810723 -10.965808 -12.331760
RightLeg 0.610804 -0.000000 -0.000000
RightFoot -17.523091 -26.194280 13.342185
RightToeBase 8.759008 -0.000000 -0.000000
LeftUpLeg -7.909104 32.225129 9.001657
LeftLeg 71.437888 -0.000000 -0.000000
LeftFoot 20.563060 26.068631 -36.817615
LeftToeBase -6.459704 -0.000000 0.000000
Spine 13.765250 4.016828 4.656635
RightShoulder 2.429748 -15.159691 -18.901476
RightArm 31.879360 10.520049 51.867513
RightForeArm 2.950168 -0.000000 107.569357
RightHand 2.158069 -0.000000 -35.175595
RightHandThumb1 -24.326973 -0.000000 -32.862282
LeftShoulder -27.204149 36.834754 -13.604027
LeftArm 27.099707 -6.587646 -73.218694
LeftForeArm 30.171664 -0.000000 49.072235
LeftHand -26.406529 -0.000000 10.692048
LeftHandThumb1 -26.253704 0.000000 33.147579
Head 14.739000 -6.614345 -18.440295
